<mxfile host="Electron" agent="Mozilla/5.0 (Windows NT 10.0; Win64; x64) AppleWebKit/537.36 (KHTML, like Gecko) draw.io/26.2.15 Chrome/134.0.6998.205 Electron/35.2.1 Safari/537.36" version="26.2.15">
  <diagram name="Page-1" id="Xkzo7FFZy1pReEGbahYb">
    <mxGraphModel dx="983" dy="655" grid="1" gridSize="10" guides="1" tooltips="1" connect="1" arrows="1" fold="1" page="1" pageScale="1" pageWidth="850" pageHeight="1100" math="0" shadow="0">
      <root>
        <mxCell id="0" />
        <mxCell id="1" parent="0" />
        <mxCell id="vmVULEkYCaMoy_RGsk3E-22" style="edgeStyle=orthogonalEdgeStyle;rounded=0;orthogonalLoop=1;jettySize=auto;html=1;exitX=0.5;exitY=1;exitDx=0;exitDy=0;entryX=0.5;entryY=0;entryDx=0;entryDy=0;" parent="1" source="vmVULEkYCaMoy_RGsk3E-2" target="vmVULEkYCaMoy_RGsk3E-3" edge="1">
          <mxGeometry relative="1" as="geometry" />
        </mxCell>
        <mxCell id="vmVULEkYCaMoy_RGsk3E-2" value="E_MONEY" style="rounded=1;whiteSpace=wrap;html=1;" parent="1" vertex="1">
          <mxGeometry x="320" y="140" width="120" height="40" as="geometry" />
        </mxCell>
        <mxCell id="vmVULEkYCaMoy_RGsk3E-21" style="edgeStyle=orthogonalEdgeStyle;rounded=0;orthogonalLoop=1;jettySize=auto;html=1;exitX=0.5;exitY=1;exitDx=0;exitDy=0;entryX=0.5;entryY=0;entryDx=0;entryDy=0;" parent="1" source="vmVULEkYCaMoy_RGsk3E-3" target="vmVULEkYCaMoy_RGsk3E-4" edge="1">
          <mxGeometry relative="1" as="geometry" />
        </mxCell>
        <mxCell id="vmVULEkYCaMoy_RGsk3E-3" value="card&amp;nbsp;← CARD_NULL&lt;div&gt;attempt&amp;nbsp;← 1&lt;/div&gt;" style="rounded=0;whiteSpace=wrap;html=1;" parent="1" vertex="1">
          <mxGeometry x="310" y="220" width="140" height="40" as="geometry" />
        </mxCell>
        <mxCell id="vmVULEkYCaMoy_RGsk3E-6" style="edgeStyle=orthogonalEdgeStyle;rounded=0;orthogonalLoop=1;jettySize=auto;html=1;exitX=0.5;exitY=1;exitDx=0;exitDy=0;entryX=0.5;entryY=0;entryDx=0;entryDy=0;" parent="1" source="vmVULEkYCaMoy_RGsk3E-4" target="vmVULEkYCaMoy_RGsk3E-5" edge="1">
          <mxGeometry relative="1" as="geometry" />
        </mxCell>
        <mxCell id="P7q7srPCm1o7Gx5C2iNk-3" value="T" style="edgeLabel;html=1;align=center;verticalAlign=middle;resizable=0;points=[];" vertex="1" connectable="0" parent="vmVULEkYCaMoy_RGsk3E-6">
          <mxGeometry x="-0.4737" y="-6" relative="1" as="geometry">
            <mxPoint x="16" y="4" as="offset" />
          </mxGeometry>
        </mxCell>
        <mxCell id="P7q7srPCm1o7Gx5C2iNk-1" style="edgeStyle=orthogonalEdgeStyle;rounded=0;orthogonalLoop=1;jettySize=auto;html=1;exitX=1;exitY=0.5;exitDx=0;exitDy=0;endArrow=doubleBlock;endFill=1;dashed=1;strokeWidth=2;" edge="1" parent="1" source="vmVULEkYCaMoy_RGsk3E-4">
          <mxGeometry relative="1" as="geometry">
            <mxPoint x="680" y="359.7272727272725" as="targetPoint" />
          </mxGeometry>
        </mxCell>
        <mxCell id="P7q7srPCm1o7Gx5C2iNk-4" value="F" style="edgeLabel;html=1;align=center;verticalAlign=middle;resizable=0;points=[];" vertex="1" connectable="0" parent="P7q7srPCm1o7Gx5C2iNk-1">
          <mxGeometry x="-0.06" y="2" relative="1" as="geometry">
            <mxPoint x="-87" y="-8" as="offset" />
          </mxGeometry>
        </mxCell>
        <mxCell id="P7q7srPCm1o7Gx5C2iNk-5" value="status&amp;nbsp;≠ STATUS_VALID" style="edgeLabel;html=1;align=center;verticalAlign=middle;resizable=0;points=[];" vertex="1" connectable="0" parent="P7q7srPCm1o7Gx5C2iNk-1">
          <mxGeometry x="0.427" y="12" relative="1" as="geometry">
            <mxPoint x="62" y="32" as="offset" />
          </mxGeometry>
        </mxCell>
        <mxCell id="vmVULEkYCaMoy_RGsk3E-4" value="attempt &amp;lt; 6" style="rhombus;whiteSpace=wrap;html=1;" parent="1" vertex="1">
          <mxGeometry x="330" y="310" width="100" height="100" as="geometry" />
        </mxCell>
        <mxCell id="vmVULEkYCaMoy_RGsk3E-16" style="edgeStyle=orthogonalEdgeStyle;rounded=0;orthogonalLoop=1;jettySize=auto;html=1;exitX=0.5;exitY=1;exitDx=0;exitDy=0;entryX=0.5;entryY=0;entryDx=0;entryDy=0;" parent="1" source="vmVULEkYCaMoy_RGsk3E-5" target="vmVULEkYCaMoy_RGsk3E-7" edge="1">
          <mxGeometry relative="1" as="geometry" />
        </mxCell>
        <mxCell id="vmVULEkYCaMoy_RGsk3E-5" value="input(cardID)" style="shape=parallelogram;perimeter=parallelogramPerimeter;whiteSpace=wrap;html=1;fixedSize=1;" parent="1" vertex="1">
          <mxGeometry x="320" y="470" width="120" height="50" as="geometry" />
        </mxCell>
        <mxCell id="vmVULEkYCaMoy_RGsk3E-14" value="" style="group" parent="1" vertex="1" connectable="0">
          <mxGeometry x="205" y="570" width="350" height="110" as="geometry" />
        </mxCell>
        <mxCell id="vmVULEkYCaMoy_RGsk3E-7" value="card&amp;nbsp; &amp;nbsp;←&amp;nbsp;&lt;div&gt;&lt;br&gt;&lt;/div&gt;&lt;div&gt;&lt;br&gt;&lt;/div&gt;&lt;div&gt;&lt;br&gt;&lt;/div&gt;&lt;div&gt;status&amp;nbsp;←&amp;nbsp;&lt;/div&gt;" style="rounded=0;whiteSpace=wrap;html=1;align=left;spacingLeft=12;" parent="vmVULEkYCaMoy_RGsk3E-14" vertex="1">
          <mxGeometry width="350" height="110" as="geometry" />
        </mxCell>
        <mxCell id="vmVULEkYCaMoy_RGsk3E-8" value="&lt;font style=&quot;font-size: 10px;&quot;&gt;cs.card_search(cardDatabase, cardID)&lt;/font&gt;" style="shape=process;whiteSpace=wrap;html=1;backgroundOutline=1;" parent="vmVULEkYCaMoy_RGsk3E-14" vertex="1">
          <mxGeometry x="70" y="8.571428571428555" width="270" height="37.142857142857146" as="geometry" />
        </mxCell>
        <mxCell id="vmVULEkYCaMoy_RGsk3E-11" value="&lt;font style=&quot;font-size: 10px;&quot;&gt;cs.card_verificator(card, locationCode, gate)&lt;/font&gt;" style="shape=process;whiteSpace=wrap;html=1;backgroundOutline=1;" parent="vmVULEkYCaMoy_RGsk3E-14" vertex="1">
          <mxGeometry x="70" y="64.28571428571433" width="270" height="37.142857142857146" as="geometry" />
        </mxCell>
        <mxCell id="vmVULEkYCaMoy_RGsk3E-19" style="edgeStyle=orthogonalEdgeStyle;rounded=0;orthogonalLoop=1;jettySize=auto;html=1;exitX=0;exitY=0.5;exitDx=0;exitDy=0;entryX=0;entryY=0.5;entryDx=0;entryDy=0;" parent="1" source="vmVULEkYCaMoy_RGsk3E-15" target="vmVULEkYCaMoy_RGsk3E-18" edge="1">
          <mxGeometry relative="1" as="geometry" />
        </mxCell>
        <mxCell id="vmVULEkYCaMoy_RGsk3E-26" value="≠ STATUS_VALID" style="edgeLabel;html=1;align=center;verticalAlign=middle;resizable=0;points=[];" parent="vmVULEkYCaMoy_RGsk3E-19" vertex="1" connectable="0">
          <mxGeometry x="-0.6836" y="-6" relative="1" as="geometry">
            <mxPoint y="-14" as="offset" />
          </mxGeometry>
        </mxCell>
        <mxCell id="vmVULEkYCaMoy_RGsk3E-27" style="edgeStyle=orthogonalEdgeStyle;rounded=0;orthogonalLoop=1;jettySize=auto;html=1;strokeWidth=2;dashed=1;startArrow=none;startFill=0;endArrow=doubleBlock;endFill=1;" parent="1" source="vmVULEkYCaMoy_RGsk3E-15" edge="1">
          <mxGeometry relative="1" as="geometry">
            <mxPoint x="660" y="780" as="targetPoint" />
          </mxGeometry>
        </mxCell>
        <mxCell id="vmVULEkYCaMoy_RGsk3E-28" value="= STATUS_VALID" style="edgeLabel;html=1;align=center;verticalAlign=middle;resizable=0;points=[];" parent="vmVULEkYCaMoy_RGsk3E-27" vertex="1" connectable="0">
          <mxGeometry x="-0.2571" y="2" relative="1" as="geometry">
            <mxPoint x="-9" y="-18" as="offset" />
          </mxGeometry>
        </mxCell>
        <mxCell id="vmVULEkYCaMoy_RGsk3E-15" value="status" style="rhombus;whiteSpace=wrap;html=1;" parent="1" vertex="1">
          <mxGeometry x="340" y="740" width="80" height="80" as="geometry" />
        </mxCell>
        <mxCell id="vmVULEkYCaMoy_RGsk3E-20" style="edgeStyle=orthogonalEdgeStyle;rounded=0;orthogonalLoop=1;jettySize=auto;html=1;exitX=1;exitY=0.5;exitDx=0;exitDy=0;entryX=0;entryY=0.5;entryDx=0;entryDy=0;" parent="1" source="vmVULEkYCaMoy_RGsk3E-18" target="vmVULEkYCaMoy_RGsk3E-4" edge="1">
          <mxGeometry relative="1" as="geometry" />
        </mxCell>
        <mxCell id="vmVULEkYCaMoy_RGsk3E-18" value="attempt&amp;nbsp;← attempt + 1" style="rounded=0;whiteSpace=wrap;html=1;" parent="1" vertex="1">
          <mxGeometry x="170" y="340" width="130" height="40" as="geometry" />
        </mxCell>
        <mxCell id="vmVULEkYCaMoy_RGsk3E-23" style="edgeStyle=orthogonalEdgeStyle;rounded=0;orthogonalLoop=1;jettySize=auto;html=1;exitX=0.5;exitY=1;exitDx=0;exitDy=0;entryX=0.5;entryY=0;entryDx=0;entryDy=0;" parent="1" source="vmVULEkYCaMoy_RGsk3E-7" target="vmVULEkYCaMoy_RGsk3E-15" edge="1">
          <mxGeometry relative="1" as="geometry" />
        </mxCell>
        <mxCell id="vmVULEkYCaMoy_RGsk3E-29" value="" style="rounded=0;whiteSpace=wrap;html=1;fillColor=#008a00;fontColor=#ffffff;strokeColor=#005700;opacity=20;" parent="1" vertex="1">
          <mxGeometry x="140" y="290" width="430" height="540" as="geometry" />
        </mxCell>
        <mxCell id="vmVULEkYCaMoy_RGsk3E-30" value="" style="endArrow=classic;html=1;rounded=0;entryX=0.5;entryY=0;entryDx=0;entryDy=0;dashed=1;startArrow=ERmandOne;startFill=0;strokeWidth=2;" parent="1" target="vmVULEkYCaMoy_RGsk3E-2" edge="1">
          <mxGeometry width="50" height="50" relative="1" as="geometry">
            <mxPoint x="380" y="70" as="sourcePoint" />
            <mxPoint x="390" y="30" as="targetPoint" />
          </mxGeometry>
        </mxCell>
      </root>
    </mxGraphModel>
  </diagram>
</mxfile>
